<svg width="67" height="58" viewBox="0 0 67 58" fill="none" xmlns="http://www.w3.org/2000/svg">
<g clip-path="url(#clip0_1210_1530)">
<path d="M14.8496 30.2943C18.3319 30.2943 21.1548 27.4763 21.1548 24.0002C21.1548 20.524 18.3319 17.7061 14.8496 17.7061C11.3674 17.7061 8.54443 20.524 8.54443 24.0002C8.54443 27.4763 11.3674 30.2943 14.8496 30.2943Z" fill="#D9D9D9"/>
<path d="M54.095 30.2943C57.5772 30.2943 60.4002 27.4763 60.4002 24.0002C60.4002 20.524 57.5772 17.7061 54.095 17.7061C50.6127 17.7061 47.7898 20.524 47.7898 24.0002C47.7898 27.4763 50.6127 30.2943 54.095 30.2943Z" fill="#D9D9D9"/>
<path d="M45.197 52.1173C41.4846 52.1173 38.7151 50.4702 37.949 48.7644L41.1311 45.6467C42.015 44.8232 42.2507 43.5291 41.7793 42.4114C41.3079 41.2938 40.2472 40.5879 39.0686 40.5879H30.1706C28.9921 40.5879 27.8725 41.2938 27.46 42.4114C26.9886 43.5291 27.2832 44.8232 28.1671 45.6467L31.4081 48.7644C30.6421 50.4702 27.8725 52.1173 24.1601 52.1173C22.5101 52.1173 21.2137 53.4114 21.2137 55.0585C21.2137 56.7055 22.5101 57.9997 24.1601 57.9997C28.5207 57.9997 32.2331 56.5291 34.708 54.1761C37.183 56.4702 40.8954 57.9997 45.256 57.9997C46.9059 57.9997 48.2023 56.7055 48.2023 55.0585C48.2023 53.4114 46.9059 52.1173 45.256 52.1173H45.197Z" fill="#D9D9D9"/>
<path d="M64.0537 11.3526C63.6412 11.3526 63.1697 11.235 62.7573 11.0585L51.6201 5.58793C50.1469 4.88205 49.5576 3.11734 50.2647 1.64675C50.9719 0.176166 52.7397 -0.412069 54.2128 0.293813L65.35 5.7644C66.8232 6.47028 67.4125 8.23499 66.7054 9.70558C66.175 10.7644 65.1733 11.3526 64.0537 11.3526Z" fill="#D9D9D9"/>
<path d="M2.94636 11.3526C1.88567 11.3526 0.824985 10.7644 0.294642 9.70558C-0.412482 8.23499 0.176788 6.47028 1.64996 5.7644L12.7872 0.293813C14.2603 -0.412069 16.0282 0.176166 16.7353 1.64675C17.4424 3.11734 16.8531 4.88205 15.38 5.58793L4.24275 11.0585C3.83026 11.235 3.35885 11.3526 2.94636 11.3526Z" fill="#D9D9D9"/>
</g>
<defs>
<clipPath id="clip0_1210_1530">
<rect width="67" height="58" fill="white"/>
</clipPath>
</defs>
</svg>
