<svg width="20" height="18" viewBox="0 0 20 18" fill="none" xmlns="http://www.w3.org/2000/svg">
<path d="M9.99725 18C9.63069 18 9.28635 17.848 9.03086 17.579L1.67182 9.83067C-0.349832 7.70208 -0.566438 4.29283 1.17752 2.07068C2.16057 0.813409 3.54907 0.0824377 5.08197 0.0064167C6.58155 -0.0696043 8.07557 0.532716 9.14749 1.66134L9.95283 2.50926L10.8081 1.65549C11.8245 0.591193 13.1741 0.000568798 14.6126 0.000568798C16.0511 0.000568798 17.4063 0.591193 18.4227 1.66134C19.439 2.73148 20 4.15833 20 5.6729C20 7.18748 19.439 8.61433 18.4227 9.68447L10.9637 17.579C10.7082 17.8538 10.3638 18 9.99725 18ZM5.33745 1.57947C5.27636 1.57947 5.21526 1.57947 5.15417 1.57947C4.04892 1.63794 3.04366 2.16424 2.33275 3.0765C1.07755 4.67878 1.25527 7.15239 2.73264 8.71374L9.99725 16.3568L17.3619 8.5617C18.095 7.7898 18.5004 6.76059 18.5004 5.66706C18.5004 4.57352 18.095 3.54432 17.3619 2.77241C15.8956 1.2286 13.3352 1.2286 11.869 2.77241C11.869 2.77241 11.8578 2.78411 11.8523 2.78411L10.586 4.04722C10.225 4.40979 9.6418 4.40394 9.28634 4.02968L8.08669 2.76656C7.35911 2.00051 6.36494 1.56777 5.33745 1.56777V1.57947Z" fill="black"/>
</svg>
