<svg width="279" height="59" viewBox="0 0 279 59" fill="none" xmlns="http://www.w3.org/2000/svg">
<path d="M0.0199474 9.46639C0.0199474 8.52918 0.658265 7.60184 1.94487 6.70409C3.23148 5.80634 4.94696 4.99739 7.11125 4.26735C9.27555 3.53732 11.759 2.95526 14.5716 2.51132C17.3842 2.06738 20.3364 1.85034 23.4183 1.85034C27.687 1.85034 31.5269 2.4028 34.9479 3.49785C38.3689 4.59291 41.2712 6.14177 43.6649 8.14443C46.0586 10.1372 47.9037 12.5542 49.2003 15.3757C50.4969 18.1972 51.1452 21.3245 51.1452 24.7478C51.1452 28.398 50.5567 31.6141 49.3699 34.3764C48.183 37.1387 46.5074 39.457 44.3331 41.3117C42.1589 43.1664 39.5258 44.5574 36.4639 45.4848C33.4019 46.4121 29.981 46.8758 26.2309 46.8758C25.2833 46.8758 24.296 46.8067 23.2886 46.6785C22.2813 46.5502 21.3238 46.3924 20.4361 46.2049C19.5385 46.0175 18.7506 45.83 18.0524 45.6525C17.3642 45.465 16.8556 45.3072 16.5364 45.1592C16.4466 45.248 16.3669 45.3565 16.297 45.5045C16.2272 45.6426 16.1873 45.8498 16.1873 46.1063C16.1873 46.422 16.327 46.7179 16.5963 47.004C16.8755 47.2901 17.3542 47.5466 18.0424 47.7735C18.7306 48.0004 19.6682 48.2076 20.8351 48.395C21.3038 48.474 21.8225 48.5331 22.381 48.6022C24.0167 48.7798 25.2634 50.1313 25.2634 51.7591V53.7124C25.2634 54.847 24.665 55.9223 23.6576 56.4649C23.3784 56.6227 23.0891 56.7608 22.7799 56.9088C21.8125 57.3528 20.7852 57.7276 19.6881 58.0433C18.591 58.359 17.444 58.5958 16.2472 58.7536C15.0503 58.9115 13.8635 58.9904 12.6766 58.9904C11.0309 58.9904 9.4451 58.8227 7.91912 58.4971C6.39315 58.1716 5.0467 57.6487 3.8698 56.9384C2.70287 56.2281 1.76535 55.3008 1.05721 54.1761C0.34908 53.0515 0 51.6999 0 50.1313V9.46639H0.0199474ZM24.2062 29.4832C24.296 29.5424 24.4256 29.572 24.6151 29.5917C24.8046 29.6016 24.9243 29.6114 24.9841 29.6114C25.6723 29.6114 26.171 29.3944 26.4503 28.9702C26.7395 28.546 26.8791 27.8455 26.8791 26.8787V23.6232C26.8791 22.6268 26.7595 21.8967 26.5101 21.4429C26.2608 20.9891 25.812 20.7622 25.1437 20.7622C25.0041 20.7622 24.8246 20.7721 24.6251 20.8017C24.4256 20.8313 24.266 20.8707 24.1463 20.9299C24.1763 21.1568 24.1862 21.4035 24.1862 21.66V29.493L24.2062 29.4832Z" fill="#72DACD"/>
<path d="M105.352 43.4817C106.389 44.5373 106.888 46.0369 106.589 47.4772C105.911 50.7229 104.644 53.3372 102.789 55.3103C100.495 57.747 97.2634 58.9703 93.0745 58.9703C91.7181 58.9703 90.3517 58.8125 88.9853 58.4968C87.6189 58.1811 86.2924 57.6188 85.0058 56.8098C83.7192 56.0009 82.5223 54.8861 81.3953 53.4753C80.2682 52.0646 79.3008 50.2592 78.4929 48.0593L77.9543 46.6091C77.3659 45.0207 75.9197 43.9158 74.2342 43.6692H74.2142C73.526 43.5705 72.8977 43.4719 72.3491 43.3831C72.2594 43.4719 72.1796 43.5804 72.1098 43.7284C72.0399 43.8764 72 44.0737 72 44.3302C72 44.6754 72.2294 44.9615 72.6882 45.2082C72.8378 45.2871 73.0273 45.3562 73.2667 45.4154C74.7229 45.7804 75.9297 46.7768 76.4882 48.1579L77.6452 51.0583C77.8546 51.5911 77.9643 52.1534 77.9643 52.7256V52.8834C77.9643 54.6098 76.9969 56.2278 75.4111 56.9578C74.4237 57.4116 73.3664 57.7865 72.2195 58.0825C69.9953 58.6645 67.6615 58.9605 65.208 58.9605C63.4227 58.9605 61.787 58.7829 60.3009 58.4277C58.8148 58.0726 57.5282 57.5201 56.4311 56.7802C55.334 56.0403 54.4862 55.1228 53.8778 54.0179C53.2694 52.913 52.9702 51.6108 52.9702 50.1014V9.46604C52.9702 8.80506 53.2993 8.16382 53.9676 7.52257C54.6358 6.88132 55.5434 6.27954 56.6904 5.70735C57.8474 5.13516 59.2038 4.61229 60.7597 4.14862C62.3156 3.67509 63.9812 3.27061 65.7565 2.92532C67.5318 2.58003 69.377 2.32353 71.2919 2.13609C73.2069 1.94865 75.1019 1.85986 76.9769 1.85986C81.1559 1.85986 84.9758 2.3038 88.4168 3.18182C91.8677 4.0697 94.8099 5.38179 97.2634 7.13782C99.717 8.89385 101.612 11.0642 102.948 13.6391C104.285 16.2139 104.963 19.2229 104.963 22.6461C104.963 24.6389 104.654 26.4838 104.036 28.1707C103.417 29.8577 102.589 31.3474 101.552 32.6595C100.515 33.9716 99.2981 35.0962 97.8918 36.0235C96.4855 36.9509 95.0194 37.6612 93.4535 38.1446C93.4535 38.6576 93.5931 39.0127 93.8824 39.2101C94.1716 39.4074 94.5207 39.506 94.9196 39.506C95.3186 39.506 95.927 39.3679 96.7348 39.0818C96.7947 39.0621 96.8645 39.0325 96.9343 39.0127C98.6598 38.3419 100.635 38.7267 101.931 40.0387L105.342 43.4916L105.352 43.4817ZM77.1565 27.7761C77.2462 27.8353 77.3759 27.8649 77.5654 27.8846C77.7549 27.8945 77.8746 27.9044 77.9344 27.9044C78.6226 27.9044 79.1213 27.6873 79.4005 27.2631C79.6798 26.8389 79.8294 26.1385 79.8294 25.1717V23.6327C79.8294 22.6363 79.7097 21.9062 79.4604 21.4524C79.211 20.9986 78.7622 20.7717 78.094 20.7717C77.9543 20.7717 77.7748 20.7816 77.5754 20.8112C77.3759 20.8408 77.2163 20.8802 77.0966 20.9394C77.1265 21.1663 77.1365 21.413 77.1365 21.6695V27.786L77.1565 27.7761Z" fill="#72DACD"/>
<path d="M151.521 3.00439C152.488 3.00439 153.356 3.56672 153.765 4.425C153.855 4.61245 153.944 4.79989 154.024 4.99719C154.343 5.72723 154.603 6.477 154.802 7.26622C155.002 8.05545 155.161 8.83481 155.281 9.62404C155.401 10.4034 155.45 11.1433 155.45 11.824C155.45 14.7639 154.872 16.9441 153.725 18.3746C152.568 19.8051 150.982 20.5154 148.968 20.5154H131.533C130.466 20.5154 129.928 20.9297 129.928 21.7584V22.1037C129.928 22.2714 129.958 22.3898 130.017 22.449H149.147C150.144 22.449 151.062 23.031 151.431 23.9485V23.9682C151.67 24.5503 151.86 25.162 152.019 25.8131C152.179 26.4543 152.309 27.1153 152.408 27.7861C152.508 28.457 152.558 29.0884 152.558 29.6901C152.558 31.4067 152.389 32.9358 152.039 34.2874C151.87 34.9582 151.67 35.5699 151.441 36.1322C151.062 37.0497 150.154 37.6515 149.147 37.6515H141.268C138.814 37.6515 136.79 37.7205 135.194 37.8488C133.588 37.977 132.331 38.1447 131.404 38.3421C130.476 38.5394 129.828 38.7663 129.459 39.003C129.08 39.2497 128.9 39.4963 128.9 39.7528C128.9 39.9797 128.94 40.1967 129.01 40.394C129.08 40.5914 129.25 40.7689 129.509 40.907C130.227 40.6801 130.965 40.4828 131.713 40.3053C132.461 40.1277 133.299 39.9994 134.226 39.9008C135.154 39.8021 136.181 39.7232 137.318 39.664C138.455 39.6048 139.772 39.5752 141.278 39.5752H152.069C152.947 39.5752 153.755 40.0192 154.194 40.7689C154.254 40.8774 154.323 40.986 154.383 41.0945C154.702 41.6469 154.982 42.2882 155.231 43.0182C155.48 43.7483 155.68 44.577 155.839 45.524C155.999 46.4612 156.079 47.5464 156.079 48.7796C156.079 49.5491 156.019 50.3679 155.909 51.2361C155.79 52.1042 155.62 52.9724 155.391 53.8208C155.161 54.6791 154.852 55.488 154.483 56.2575C154.343 56.5535 154.184 56.8396 154.014 57.1059C153.565 57.836 152.758 58.27 151.9 58.27H120.732C119.026 58.27 117.441 58.0629 115.975 57.6485C114.508 57.2342 113.222 56.5929 112.125 55.7248C111.028 54.8566 110.16 53.7517 109.531 52.4298C108.903 51.1078 108.584 49.5096 108.584 47.6549V6.94067C108.584 5.56938 110.19 4.57298 113.381 3.9416C116.583 3.31022 121.47 3.00439 128.043 3.00439H151.531H151.521Z" fill="#72DACD"/>
<path d="M278.805 49.5982C278.645 47.6252 278.446 45.366 278.197 42.8109C277.947 40.2558 277.668 37.5231 277.349 34.6128C277.03 31.7025 276.711 28.8317 276.391 25.9905C276.072 23.1493 275.763 20.4659 275.464 17.9206C275.165 15.3852 274.905 13.2149 274.706 11.4194C274.506 9.71266 274.097 8.27232 273.499 7.09834C272.891 5.93423 272.063 4.97729 271.016 4.25712C269.958 3.52709 268.662 3.00423 267.126 2.6688C265.58 2.34325 263.785 2.17554 261.74 2.17554C260.583 2.17554 259.456 2.24459 258.369 2.39257C257.282 2.54055 256.255 2.71813 255.317 2.94503C254.379 3.17194 253.532 3.42844 252.764 3.71453C252.654 3.75399 252.544 3.80332 252.435 3.84278C251.477 4.21766 250.759 5.02662 250.52 6.02302L246.77 21.4327C245.613 21.3735 245.034 20.8605 245.034 19.8937C245.034 19.6964 245.044 19.4892 245.074 19.2919C245.104 19.0946 245.144 18.8776 245.204 18.6507L246.251 14.2902C246.55 13.0274 246.52 11.7153 246.141 10.4723L244.974 6.60508C244.525 5.12527 243.378 3.9513 241.892 3.44817C241.204 3.22126 240.446 3.01409 239.638 2.82665C237.753 2.40244 235.828 2.1854 233.864 2.1854C232.766 2.1854 231.629 2.24459 230.443 2.38271C229.256 2.51096 228.089 2.728 226.912 3.02396C225.735 3.31992 224.628 3.73426 223.561 4.24726C223.242 4.39524 222.942 4.56295 222.643 4.73066C221.396 5.45083 220.589 6.73333 220.399 8.15394C220.339 8.61761 220.269 9.1306 220.2 9.68306C220.01 11.1925 219.801 12.9189 219.571 14.8624C219.342 16.8058 219.112 18.8973 218.883 21.1565C218.654 23.4058 218.424 25.6846 218.195 27.9833C217.965 30.2819 217.746 32.5509 217.547 34.8101C217.347 37.0594 217.168 39.1607 217.008 41.1042C216.848 43.0477 216.729 44.7741 216.639 46.3032C216.549 47.8323 216.509 49.0359 216.509 49.9238C216.509 51.6108 216.988 53.0215 217.955 54.156C218.923 55.3004 220.14 56.2277 221.616 56.9578C223.092 57.6878 224.698 58.2008 226.463 58.5165C228.218 58.8322 229.914 58.99 231.53 58.99C233.235 58.99 234.741 58.921 236.048 58.773C237.354 58.625 238.531 58.4277 239.578 58.1515C240.626 57.8753 241.543 57.5497 242.371 57.1452C242.88 56.8986 243.817 56.3757 244.645 55.8923C245.473 55.4089 245.882 54.5605 245.802 53.6529L245.303 48.0395C244.645 48.2861 243.947 48.4243 243.209 48.4243C239.888 48.4243 237.195 45.7508 237.195 42.4755C237.195 41.9329 237.644 41.4889 238.192 41.4889C238.741 41.4889 239.15 41.8934 239.189 42.4064C239.289 43.8665 239.868 45.297 241.184 45.9579C243.897 47.3095 246.58 45.7409 247.129 43.3633L245.234 41.558C245.084 41.4199 245.044 41.2028 245.114 41.0154C245.194 40.8279 245.373 40.7096 245.573 40.7096H250.889C251.088 40.7096 251.278 40.8279 251.347 41.0154C251.427 41.2028 251.377 41.41 251.238 41.558L249.343 43.3831C249.901 45.7508 252.574 47.3095 255.287 45.9579C256.604 45.297 257.182 43.8665 257.282 42.4163C257.322 41.9033 257.751 41.4988 258.279 41.4988C258.808 41.4988 259.277 41.9427 259.277 42.4853C259.277 45.7705 256.574 48.4341 253.252 48.4341C252.684 48.4341 252.145 48.3552 251.627 48.2072L251.966 51.3839C252.085 52.6664 252.474 53.7811 253.153 54.7184C253.831 55.6556 254.738 56.4547 255.875 57.0959C257.013 57.7371 258.379 58.2107 259.965 58.5264C261.551 58.8421 263.296 58.9999 265.201 58.9999C270.477 58.9999 274.666 57.7273 277.778 55.1722C278.616 54.4816 279.054 53.426 278.995 52.3408C278.955 51.5812 278.895 50.6834 278.805 49.6278V49.5982ZM242.212 38.0459C241.084 38.0459 240.177 37.1383 240.177 36.0334C240.177 34.9285 241.094 34.0209 242.212 34.0209C243.329 34.0209 244.246 34.9285 244.246 36.0334C244.246 37.1383 243.329 38.0459 242.212 38.0459ZM254.25 38.0459C253.123 38.0459 252.215 37.1383 252.215 36.0334C252.215 34.9285 253.133 34.0209 254.25 34.0209C255.367 34.0209 256.284 34.9285 256.284 36.0334C256.284 37.1383 255.367 38.0459 254.25 38.0459Z" fill="#72DACD"/>
<path d="M205.328 12.8401L203.294 1.00172C203.104 0.113836 202.067 -0.290643 201.319 0.23222L196.282 3.95145C194.936 3.45819 193.51 3.06357 191.974 2.78734C189.769 2.39273 187.535 2.18556 185.291 2.18556C183.586 2.18556 181.9 2.29408 180.205 2.51111C178.808 2.68869 177.462 2.94519 176.145 3.25101C175.148 3.60617 173.841 4.31647 172.684 5.72722C172.485 5.96398 172.196 6.09223 171.906 6.09223C171.687 6.09223 171.468 6.02318 171.278 5.8752C170.849 5.52991 170.789 4.90839 171.139 4.48418C172.026 3.39899 173.004 2.64923 173.911 2.12637L170.46 0.212489C169.573 -0.280778 168.456 0.212489 168.246 1.19902L167.019 6.86173L157.804 47.5957C157.714 47.941 157.654 48.2764 157.634 48.602C157.604 48.9276 157.594 49.2531 157.594 49.5688C157.594 50.9993 157.993 52.2818 158.801 53.4459C159.609 54.61 160.686 55.5867 162.043 56.3956C163.399 57.2046 164.985 57.8458 166.8 58.2996C168.615 58.7534 170.55 58.9803 172.595 58.9803C174.24 58.9803 175.786 58.8225 177.242 58.5068C178.699 58.1911 179.995 57.7965 181.132 57.3131C182.269 56.8297 183.227 56.3068 183.985 55.7544C184.074 55.6853 184.164 55.6261 184.244 55.5571C185.012 54.9553 185.341 53.9786 185.112 53.0315C185.042 52.7257 184.962 52.3607 184.882 51.9464C184.693 50.8908 184.513 49.4997 184.354 47.793C184.324 47.4576 184.573 47.1617 184.912 47.1419L186.668 47.0334C186.967 47.0137 187.236 47.2208 187.286 47.5168L188.144 52.2226C188.343 53.367 188.802 54.3535 189.51 55.192C190.218 56.0306 191.116 56.731 192.193 57.2835C193.27 57.836 194.517 58.2602 195.933 58.5463C197.349 58.8324 198.855 58.9705 200.471 58.9705C204.132 58.9705 207.164 58.4279 209.557 57.3427C211.432 56.4943 212.978 55.4584 214.195 54.245C214.793 53.6432 215.033 52.775 214.833 51.9464L205.279 12.8401H205.328ZM188.333 35.1062L185.69 37.6515C185.59 37.7403 185.471 37.7896 185.341 37.7896C185.211 37.7896 185.092 37.7403 184.992 37.6515L182.329 35.1062C182.179 34.9681 182.14 34.7511 182.209 34.5636C182.289 34.3762 182.469 34.2578 182.668 34.2578H187.984C188.184 34.2578 188.373 34.3762 188.443 34.5636C188.523 34.7511 188.473 34.9681 188.333 35.1062Z" fill="#72DACD"/>
</svg>
