<svg width="172" height="37" viewBox="0 0 172 37" fill="none" xmlns="http://www.w3.org/2000/svg">
<path d="M0.0122973 5.93683C0.0122973 5.34908 0.405812 4.76753 1.19899 4.20453C1.99217 3.64154 3.04974 3.13422 4.384 2.6764C5.71826 2.21858 7.24928 1.85356 8.9832 1.57516C10.7171 1.29675 12.5371 1.16064 14.4371 1.16064C17.0687 1.16064 19.4359 1.5071 21.5449 2.19383C23.6539 2.88057 25.4432 3.85189 26.9189 5.1078C28.3945 6.35753 29.532 7.87329 30.3314 9.6427C31.1307 11.4121 31.5304 13.3733 31.5304 15.5201C31.5304 17.8092 31.1676 19.8261 30.4359 21.5584C29.7042 23.2907 28.6712 24.7446 27.3308 25.9077C25.9904 27.0708 24.3672 27.9432 22.4795 28.5247C20.5919 29.1063 18.4829 29.397 16.171 29.397C15.5869 29.397 14.9781 29.3537 14.3571 29.2733C13.7361 29.1929 13.1458 29.0939 12.5986 28.9763C12.0452 28.8588 11.5595 28.7412 11.1291 28.6299C10.7048 28.5123 10.3912 28.4133 10.1945 28.3205C10.1391 28.3762 10.09 28.4443 10.0469 28.5371C10.0039 28.6237 9.97928 28.7536 9.97928 28.9145C9.97928 29.1125 10.0654 29.2981 10.2314 29.4775C10.4035 29.6569 10.6987 29.8177 11.1229 29.96C11.5472 30.1023 12.1252 30.2323 12.8446 30.3498C13.1336 30.3993 13.4533 30.4364 13.7976 30.4797C14.806 30.5911 15.5746 31.4387 15.5746 32.4595V33.6845C15.5746 34.3959 15.2057 35.0703 14.5846 35.4106C14.4125 35.5096 14.2342 35.5962 14.0436 35.689C13.4471 35.9674 12.8138 36.2025 12.1375 36.4005C11.4611 36.5984 10.754 36.7469 10.0162 36.8459C9.27834 36.9449 8.54665 36.9944 7.81495 36.9944C6.80042 36.9944 5.82279 36.8892 4.88204 36.6851C3.94129 36.4809 3.11122 36.153 2.38568 35.7075C1.66629 35.2621 1.08831 34.6805 0.651758 33.9753C0.215203 33.27 0 32.4224 0 31.4387V5.93683H0.0122973ZM14.9228 18.4898C14.9781 18.5269 15.0581 18.5455 15.1749 18.5578C15.2917 18.564 15.3655 18.5702 15.4024 18.5702C15.8267 18.5702 16.1341 18.4341 16.3063 18.1681C16.4846 17.902 16.5707 17.4628 16.5707 16.8565V14.8148C16.5707 14.19 16.4969 13.7322 16.3432 13.4476C16.1894 13.163 15.9127 13.0207 15.5008 13.0207C15.4147 13.0207 15.304 13.0269 15.1811 13.0454C15.0581 13.064 14.9597 13.0887 14.8859 13.1258C14.9044 13.2681 14.9105 13.4228 14.9105 13.5837V18.496L14.9228 18.4898Z" fill="#72DACD"/>
<path d="M64.9483 27.2685C65.5878 27.9305 65.8952 28.8708 65.7107 29.7741C65.2926 31.8096 64.5118 33.449 63.3681 34.6864C61.9539 36.2145 59.9617 36.9817 57.3793 36.9817C56.5431 36.9817 55.7007 36.8827 54.8583 36.6847C54.016 36.4867 53.1982 36.1341 52.405 35.6268C51.6119 35.1195 50.874 34.4204 50.1792 33.5357C49.4844 32.651 48.888 31.5188 48.39 30.1391L48.0579 29.2297C47.6952 28.2336 46.8036 27.5407 45.7645 27.386H45.7522C45.3279 27.3241 44.9405 27.2623 44.6024 27.2066C44.547 27.2623 44.4978 27.3303 44.4548 27.4231C44.4118 27.5159 44.3872 27.6397 44.3872 27.8005C44.3872 28.0171 44.5286 28.1965 44.8114 28.3512C44.9037 28.4006 45.0205 28.444 45.1681 28.4811C46.0658 28.71 46.8097 29.3348 47.1541 30.201L47.8673 32.0199C47.9964 32.354 48.0641 32.7066 48.0641 33.0655V33.1645C48.0641 34.2471 47.4676 35.2618 46.49 35.7196C45.8813 36.0042 45.2295 36.2393 44.5224 36.4249C43.1513 36.7899 41.7125 36.9755 40.1999 36.9755C39.0993 36.9755 38.0909 36.8641 37.1748 36.6414C36.2586 36.4187 35.4655 36.0722 34.7891 35.6082C34.1128 35.1442 33.5901 34.5689 33.215 33.8759C32.84 33.183 32.6555 32.3664 32.6555 31.4198V5.9365C32.6555 5.52199 32.8584 5.11985 33.2704 4.71771C33.6823 4.31557 34.2419 3.93817 34.949 3.57934C35.6622 3.22051 36.4984 2.89261 37.4576 2.60183C38.4168 2.30487 39.4436 2.05121 40.5381 1.83467C41.6326 1.61814 42.7701 1.45728 43.9506 1.33973C45.1312 1.22218 46.2994 1.1665 47.4554 1.1665C50.0316 1.1665 52.3866 1.44491 54.5079 1.99553C56.6353 2.55234 58.4492 3.37518 59.9617 4.47642C61.4743 5.57767 62.6426 6.93876 63.4665 8.5535C64.2904 10.1682 64.7085 12.0552 64.7085 14.202C64.7085 15.4517 64.5179 16.6087 64.1367 17.6666C63.7555 18.7245 63.2451 19.6587 62.6057 20.4816C61.9662 21.3044 61.2161 22.0097 60.3491 22.5913C59.4821 23.1728 58.5783 23.6183 57.6129 23.9214C57.6129 24.2431 57.699 24.4659 57.8773 24.5896C58.0557 24.7133 58.2709 24.7752 58.5168 24.7752C58.7628 24.7752 59.1378 24.6886 59.6359 24.5092C59.6728 24.4968 59.7158 24.4782 59.7588 24.4659C60.8225 24.0452 62.04 24.2864 62.8393 25.1093L64.9422 27.2747L64.9483 27.2685ZM47.566 17.4191C47.6214 17.4563 47.7013 17.4748 47.8181 17.4872C47.9349 17.4934 48.0087 17.4996 48.0456 17.4996C48.4699 17.4996 48.7773 17.3635 48.9495 17.0974C49.1216 16.8314 49.2139 16.3921 49.2139 15.7858V14.8207C49.2139 14.1958 49.1401 13.738 48.9864 13.4534C48.8327 13.1688 48.556 13.0265 48.144 13.0265C48.0579 13.0265 47.9472 13.0327 47.8243 13.0513C47.7013 13.0698 47.6029 13.0946 47.5291 13.1317C47.5476 13.274 47.5537 13.4287 47.5537 13.5895V17.4253L47.566 17.4191Z" fill="#72DACD"/>
<path d="M93.4107 1.88428C94.0071 1.88428 94.542 2.23692 94.7941 2.77517C94.8495 2.89272 94.9048 3.01027 94.954 3.134C95.1508 3.59182 95.3106 4.06202 95.4336 4.55696C95.5566 5.0519 95.6549 5.54066 95.7287 6.0356C95.8025 6.52435 95.8333 6.98836 95.8333 7.41525C95.8333 9.2589 95.4766 10.6262 94.7695 11.5233C94.0563 12.4203 93.0786 12.8658 91.8366 12.8658H81.0888C80.4308 12.8658 80.0988 13.1256 80.0988 13.6453V13.8619C80.0988 13.967 80.1173 14.0413 80.1542 14.0784H91.9473C92.5622 14.0784 93.1278 14.4434 93.3553 15.0188V15.0312C93.5029 15.3962 93.6197 15.7798 93.7181 16.1881C93.8165 16.5902 93.8964 17.0047 93.9579 17.4254C94.0194 17.8461 94.0501 18.2421 94.0501 18.6195C94.0501 19.696 93.9456 20.6549 93.7304 21.5025C93.6259 21.9232 93.5029 22.3068 93.3615 22.6594C93.1278 23.2348 92.5683 23.6122 91.9473 23.6122H87.0898C85.5773 23.6122 84.3291 23.6555 83.3453 23.7359C82.3554 23.8164 81.5806 23.9215 81.0088 24.0453C80.437 24.169 80.0373 24.3113 79.8098 24.4598C79.5762 24.6145 79.4655 24.7691 79.4655 24.93C79.4655 25.0723 79.4901 25.2084 79.5331 25.3321C79.5762 25.4559 79.6807 25.5672 79.8406 25.6538C80.2833 25.5115 80.7383 25.3878 81.1994 25.2764C81.6606 25.1651 82.1771 25.0846 82.7489 25.0228C83.3207 24.9609 83.954 24.9114 84.655 24.8743C85.3559 24.8372 86.1676 24.8186 87.096 24.8186H93.7489C94.2899 24.8186 94.788 25.097 95.0585 25.5672C95.0954 25.6353 95.1385 25.7033 95.1753 25.7714C95.3721 26.1178 95.5443 26.52 95.698 26.9778C95.8517 27.4356 95.9747 27.9553 96.073 28.5492C96.1714 29.137 96.2206 29.8175 96.2206 30.5909C96.2206 31.0734 96.1837 31.5869 96.1161 32.1314C96.0423 32.6758 95.9378 33.2202 95.7964 33.7523C95.6549 34.2906 95.4643 34.7979 95.2368 35.2804C95.1507 35.466 95.0524 35.6455 94.9478 35.8125C94.6712 36.2703 94.1731 36.5425 93.6443 36.5425H74.4297C73.3783 36.5425 72.4007 36.4126 71.4968 36.1528C70.593 35.8929 69.7998 35.4908 69.1235 34.9464C68.4471 34.4019 67.9122 33.709 67.5248 32.88C67.1374 32.0509 66.9407 31.0487 66.9407 29.8856V4.3528C66.9407 3.49284 67.9306 2.86797 69.8982 2.47202C71.8719 2.07607 74.8848 1.88428 78.9367 1.88428H93.4168H93.4107Z" fill="#72DACD"/>
<path d="M171.88 31.104C171.782 29.8667 171.659 28.4499 171.505 26.8475C171.351 25.2452 171.179 23.5314 170.982 21.7063C170.785 19.8812 170.589 18.0809 170.392 16.2991C170.195 14.5173 170.005 12.8345 169.82 11.2383C169.636 9.64834 169.476 8.28725 169.353 7.16126C169.23 6.09095 168.978 5.18768 168.609 4.45145C168.234 3.72142 167.723 3.1213 167.078 2.66967C166.426 2.21184 165.627 1.88395 164.68 1.6736C163.727 1.46943 162.62 1.36426 161.36 1.36426C160.646 1.36426 159.951 1.40757 159.281 1.50037C158.611 1.59317 157.978 1.70453 157.4 1.84683C156.822 1.98912 156.299 2.14998 155.826 2.32939C155.758 2.35414 155.69 2.38507 155.623 2.40982C155.033 2.64492 154.59 3.15223 154.442 3.7771L152.13 13.4408C151.417 13.4037 151.061 13.082 151.061 12.4757C151.061 12.352 151.067 12.222 151.085 12.0983C151.104 11.9746 151.128 11.8385 151.165 11.6962L151.811 8.96161C151.995 8.1697 151.977 7.34686 151.743 6.56733L151.024 4.14212C150.747 3.2141 150.04 2.47788 149.124 2.16235C148.699 2.02005 148.232 1.89013 147.734 1.77258C146.572 1.50655 145.385 1.37044 144.174 1.37044C143.498 1.37044 142.797 1.40757 142.065 1.49418C141.333 1.57461 140.614 1.71072 139.888 1.89632C139.163 2.08192 138.48 2.34177 137.822 2.66348C137.626 2.75628 137.441 2.86146 137.257 2.96663C136.488 3.41826 135.99 4.22254 135.873 5.11344C135.836 5.40422 135.793 5.72593 135.75 6.07239C135.634 7.01896 135.504 8.10165 135.363 9.32044C135.222 10.5392 135.08 11.8508 134.939 13.2676C134.797 14.6782 134.656 16.1073 134.514 17.5488C134.373 18.9904 134.238 20.4133 134.115 21.8301C133.992 23.2407 133.881 24.5584 133.783 25.7772C133.684 26.996 133.611 28.0787 133.555 29.0377C133.5 29.9966 133.475 30.7514 133.475 31.3082C133.475 32.3661 133.77 33.2508 134.367 33.9623C134.963 34.68 135.713 35.2615 136.623 35.7194C137.533 36.1772 138.523 36.4989 139.612 36.6969C140.694 36.8949 141.739 36.9938 142.735 36.9938C143.787 36.9938 144.715 36.9505 145.521 36.8577C146.326 36.7649 147.052 36.6412 147.697 36.468C148.343 36.2947 148.908 36.0906 149.419 35.8369C149.732 35.6822 150.31 35.3544 150.821 35.0512C151.331 34.748 151.583 34.216 151.534 33.6468L151.227 30.1265C150.821 30.2812 150.39 30.3678 149.935 30.3678C147.888 30.3678 146.228 28.6912 146.228 26.6372C146.228 26.2969 146.504 26.0185 146.843 26.0185C147.181 26.0185 147.433 26.2722 147.457 26.5939C147.519 27.5095 147.876 28.4066 148.687 28.8211C150.36 29.6687 152.014 28.685 152.352 27.194L151.184 26.0618C151.091 25.9752 151.067 25.8391 151.11 25.7216C151.159 25.604 151.27 25.5298 151.393 25.5298H154.67C154.793 25.5298 154.91 25.604 154.953 25.7216C155.002 25.8391 154.971 25.969 154.885 26.0618L153.717 27.2064C154.061 28.6912 155.709 29.6687 157.381 28.8211C158.193 28.4066 158.55 27.5095 158.611 26.6001C158.636 26.2784 158.9 26.0247 159.226 26.0247C159.552 26.0247 159.841 26.3031 159.841 26.6434C159.841 28.7036 158.175 30.374 156.127 30.374C155.777 30.374 155.445 30.3245 155.125 30.2317L155.334 32.2238C155.408 33.0281 155.647 33.7272 156.066 34.315C156.484 34.9027 157.043 35.4038 157.744 35.806C158.445 36.2081 159.287 36.5051 160.265 36.7031C161.243 36.901 162.319 37 163.493 37C166.746 37 169.328 36.2019 171.247 34.5996C171.763 34.1665 172.034 33.5045 171.997 32.824C171.972 32.3476 171.935 31.7846 171.88 31.1226V31.104ZM149.32 23.8593C148.626 23.8593 148.066 23.2902 148.066 22.5972C148.066 21.9043 148.632 21.3351 149.32 21.3351C150.009 21.3351 150.575 21.9043 150.575 22.5972C150.575 23.2902 150.009 23.8593 149.32 23.8593ZM156.742 23.8593C156.047 23.8593 155.488 23.2902 155.488 22.5972C155.488 21.9043 156.053 21.3351 156.742 21.3351C157.431 21.3351 157.996 21.9043 157.996 22.5972C157.996 23.2902 157.431 23.8593 156.742 23.8593Z" fill="#72DACD"/>
<path d="M126.583 8.05232L125.328 0.628198C125.211 0.0713887 124.572 -0.182269 124.111 0.14563L121.006 2.47804C120.176 2.1687 119.296 1.92123 118.35 1.748C116.991 1.50053 115.613 1.37061 114.23 1.37061C113.179 1.37061 112.139 1.43866 111.094 1.57477C110.233 1.68613 109.403 1.84699 108.592 2.03878C107.977 2.2615 107.171 2.70695 106.458 3.59166C106.335 3.74014 106.157 3.82057 105.978 3.82057C105.843 3.82057 105.708 3.77726 105.591 3.68446C105.327 3.46792 105.29 3.07816 105.505 2.81213C106.052 2.13158 106.655 1.66139 107.214 1.33349L105.087 0.133256C104.54 -0.176082 103.851 0.133256 103.722 0.751933L102.966 4.30314L97.2842 29.8483C97.2289 30.0648 97.192 30.2752 97.1797 30.4793C97.1612 30.6835 97.1551 30.8877 97.1551 31.0856C97.1551 31.9827 97.401 32.787 97.8991 33.517C98.3971 34.2471 99.0612 34.8596 99.8974 35.3669C100.734 35.8742 101.711 36.2763 102.83 36.5609C103.949 36.8455 105.142 36.9878 106.403 36.9878C107.417 36.9878 108.37 36.8888 109.268 36.6909C110.166 36.4929 110.965 36.2454 111.666 35.9423C112.367 35.6391 112.957 35.3112 113.424 34.9647C113.48 34.9214 113.535 34.8843 113.584 34.841C114.058 34.4636 114.261 33.8511 114.119 33.2572C114.076 33.0654 114.027 32.8365 113.978 32.5767C113.861 31.9147 113.75 31.0423 113.652 29.972C113.634 29.7617 113.787 29.5761 113.996 29.5637L115.078 29.4956C115.263 29.4833 115.429 29.6132 115.46 29.7988L115.988 32.7499C116.111 33.4676 116.394 34.0862 116.831 34.6121C117.267 35.138 117.821 35.5772 118.485 35.9237C119.149 36.2702 119.917 36.5362 120.791 36.7156C121.664 36.895 122.592 36.9816 123.588 36.9816C125.845 36.9816 127.714 36.6414 129.19 35.9608C130.346 35.4288 131.299 34.7791 132.049 34.0182C132.418 33.6408 132.565 33.0963 132.442 32.5767L126.552 8.05232H126.583ZM116.105 22.0159L114.476 23.612C114.414 23.6677 114.341 23.6986 114.261 23.6986C114.181 23.6986 114.107 23.6677 114.045 23.612L112.404 22.0159C112.312 21.9292 112.287 21.7931 112.33 21.6756C112.379 21.558 112.49 21.4838 112.613 21.4838H115.89C116.013 21.4838 116.13 21.558 116.173 21.6756C116.222 21.7931 116.191 21.9292 116.105 22.0159Z" fill="#72DACD"/>
</svg>
