<svg width="20" height="20" viewBox="0 0 20 20" fill="none" xmlns="http://www.w3.org/2000/svg">
<path d="M7.86353 15.6199C3.52698 15.6199 0 12.117 0 7.80996C0 3.50295 3.52698 0 7.86353 0C12.2001 0 15.7271 3.50295 15.7271 7.80996C15.7271 12.117 12.2001 15.6199 7.86353 15.6199ZM7.86353 1.51813C4.37051 1.51813 1.52854 4.34074 1.52854 7.80996C1.52854 11.2792 4.37051 14.1018 7.86353 14.1018C11.3565 14.1018 14.1985 11.2792 14.1985 7.80996C14.1985 4.34074 11.3565 1.51813 7.86353 1.51813Z" fill="black"/>
<path d="M19.2373 20.0001C19.0391 20.0001 18.8466 19.927 18.6938 19.7752L12.2739 13.3934C11.9738 13.0954 11.9738 12.6175 12.2739 12.3195C12.5739 12.0214 13.0551 12.0214 13.3552 12.3195L19.7751 18.7012C20.0751 18.9992 20.0751 19.4772 19.7751 19.7752C19.6279 19.9214 19.4297 20.0001 19.2316 20.0001H19.2373Z" fill="black"/>
</svg>
