<svg width="20" height="20" viewBox="0 0 20 20" fill="none" xmlns="http://www.w3.org/2000/svg">
<path d="M19.2371 10.7429C19.0389 10.7429 18.8464 10.6695 18.6936 10.5171L9.98584 1.83587L1.30644 10.4889C1.00637 10.788 0.525124 10.788 0.225053 10.4889C-0.0750177 10.1897 -0.0750177 9.70992 0.225053 9.41076L9.44232 0.215901C9.73107 -0.0719671 10.235 -0.0719671 10.5237 0.215901L19.7749 9.43898C20.075 9.73814 20.075 10.2179 19.7749 10.5171C19.6277 10.6638 19.4296 10.7429 19.2314 10.7429H19.2371Z" fill="black"/>
<path d="M17.2326 19.9998H2.81218C2.38755 19.9998 2.04785 19.6554 2.04785 19.2378V8.0391C2.04785 7.61577 2.39322 7.2771 2.81218 7.2771C3.23115 7.2771 3.57651 7.62141 3.57651 8.0391V18.4757H16.4682V8.0391C16.4682 7.61577 16.8136 7.2771 17.2326 7.2771C17.6515 7.2771 17.9969 7.62141 17.9969 8.0391V19.2378C17.9969 19.6611 17.6515 19.9998 17.2326 19.9998Z" fill="black"/>
<path d="M11.9618 19.9999C11.5372 19.9999 11.1975 19.6556 11.1975 19.2379V13.8192H8.5648V19.2379C8.5648 19.6612 8.21943 19.9999 7.80046 19.9999C7.3815 19.9999 7.03613 19.6556 7.03613 19.2379V13.0572C7.03613 12.6338 7.3815 12.2952 7.80046 12.2952H11.9618C12.3865 12.2952 12.7262 12.6395 12.7262 13.0572V19.2379C12.7262 19.6612 12.3808 19.9999 11.9618 19.9999Z" fill="black"/>
</svg>
