<svg width="20" height="20" viewBox="0 0 20 20" fill="none" xmlns="http://www.w3.org/2000/svg">
<path d="M10 19.9946C4.48858 19.9946 0 15.5114 0 9.99456C0 4.47769 4.48314 0 10 0C15.5169 0 20 4.48313 20 10C20 15.5169 15.5169 20 10 20V19.9946ZM10 1.46899C5.29924 1.46899 1.47442 5.2938 1.47442 9.99456C1.47442 14.6953 5.29924 18.5201 10 18.5201C14.7008 18.5201 18.5256 14.6953 18.5256 9.99456C18.5256 5.2938 14.7008 1.46899 10 1.46899Z" fill="black"/>
<path d="M10 11.7137C7.72581 11.7137 5.87598 9.86383 5.87598 7.58962C5.87598 5.31541 7.72581 3.46558 10 3.46558C12.2742 3.46558 14.1241 5.31541 14.1241 7.58962C14.1241 9.86383 12.2742 11.7137 10 11.7137ZM10 4.93456C8.53648 4.93456 7.34496 6.12608 7.34496 7.58962C7.34496 9.05317 8.53648 10.2447 10 10.2447C11.4636 10.2447 12.6551 9.05317 12.6551 7.58962C12.6551 6.12608 11.4636 4.93456 10 4.93456Z" fill="black"/>
<path d="M2.99772 16.79C2.81818 16.79 2.6332 16.7248 2.49174 16.5887C2.19794 16.3058 2.18706 15.8434 2.46453 15.5496C2.59511 15.4136 5.71263 12.1872 10.0652 12.1328C12.7366 12.1437 15.223 13.2427 17.5189 15.5387C17.8073 15.827 17.8073 16.2895 17.5189 16.5779C17.2306 16.8662 16.7681 16.8662 16.4798 16.5779C14.4776 14.5757 12.3503 13.5855 10.0869 13.6018C6.34375 13.6508 3.56356 16.5343 3.53092 16.5615C3.38402 16.7139 3.19359 16.79 2.99772 16.79Z" fill="black"/>
</svg>
