<svg width="20" height="18" viewBox="0 0 20 18" fill="none" xmlns="http://www.w3.org/2000/svg">
<path d="M18.4227 1.66134C17.4063 0.591193 16.0511 0.000568932 14.6126 0.000568932C13.1741 0.000568932 11.8245 0.585346 10.8081 1.65549L9.95283 2.50926L9.1475 1.66134C8.07558 0.532716 6.58155 -0.0696043 5.08197 0.0064167C3.54907 0.0824377 2.16057 0.819256 1.17752 2.07068C-0.566438 4.29283 -0.349832 7.70208 1.67182 9.83067L9.03086 17.579C9.28635 17.848 9.63069 18 9.99726 18C10.3638 18 10.7082 17.848 10.9637 17.579L18.4227 9.68447C19.439 8.61433 20 7.18748 20 5.6729C20 4.15833 19.439 2.73148 18.4227 1.66134Z" fill="black"/>
</svg>
