<svg width="20" height="18" viewBox="0 0 20 18" fill="none" xmlns="http://www.w3.org/2000/svg">
<ellipse cx="9.99981" cy="10" rx="5.2381" ry="5" fill="#72DACD"/>
<path d="M0.941854 2.94125L0.941253 2.94185C0.642455 3.24014 0.5 3.58381 0.5 4V16C0.5 16.4162 0.642483 16.7604 0.941553 17.0594C1.23978 17.3577 1.58354 17.5 2 17.5H18C18.4162 17.5 18.7603 17.3578 19.0591 17.0597C19.0593 17.0595 19.0595 17.0593 19.0597 17.0591M0.941854 2.94125L18 2C18.55 2 19.021 2.196 19.413 2.588C19.8043 2.97933 20 3.45 20 4V16C20 16.55 19.8043 17.021 19.413 17.413L19.0597 17.0591M0.941854 2.94125C1.24014 2.64245 1.58381 2.5 2 2.5H5.15H5.36846L5.51688 2.3397L6.76688 0.989704L6.77447 0.981503L6.78169 0.972971C6.91477 0.815695 7.07125 0.700764 7.25541 0.623077M0.941854 2.94125L12.7446 0.623094M19.0597 17.0591C19.3578 16.7603 19.5 16.4162 19.5 16V4C19.5 3.58354 19.3577 3.23978 19.0594 2.94155C18.7604 2.64248 18.4162 2.5 18 2.5H14.85H14.6315L14.4831 2.3397L13.2331 0.989704L13.2255 0.981503L13.2183 0.972971C13.0852 0.815706 12.9288 0.700781 12.7446 0.623094M19.0597 17.0591L12.7446 0.623094M12.7446 0.623094C12.7449 0.623195 12.7451 0.623296 12.7454 0.623398L12.938 0.162L12.7439 0.622795C12.7442 0.622895 12.7444 0.622995 12.7446 0.623094ZM12.7446 0.623094C12.5479 0.541059 12.3427 0.5 12.125 0.5H7.875C7.65735 0.5 7.45214 0.541053 7.25541 0.623077M7.25541 0.623077C7.25564 0.622983 7.25586 0.622889 7.25608 0.622795L7.062 0.162L7.25465 0.623398C7.2549 0.623291 7.25516 0.623184 7.25541 0.623077ZM13.5414 13.5417L13.5417 13.5414C14.5111 12.5713 15 11.381 15 10C15 8.61897 14.5111 7.42874 13.5417 6.45858L13.5414 6.45831C12.5713 5.4889 11.381 5 10 5C8.61897 5 7.42874 5.4889 6.45858 6.45831L6.45831 6.45858C5.4889 7.42874 5 8.61897 5 10C5 11.381 5.4889 12.5713 6.45831 13.5414L6.45858 13.5417C7.42874 14.5111 8.61897 15 10 15C11.381 15 12.5713 14.5111 13.5414 13.5417Z" stroke="black"/>
</svg>
