<svg width="41" height="40" viewBox="0 0 41 40" fill="none" xmlns="http://www.w3.org/2000/svg">
<path d="M40.5 20C40.5 30.758 31.5574 39.5 20.5 39.5C9.44259 39.5 0.5 30.758 0.5 20C0.5 9.24201 9.44259 0.5 20.5 0.5C31.5574 0.5 40.5 9.24201 40.5 20Z" fill="white" stroke="#F6F6F6"/>
<ellipse cx="20.5" cy="21" rx="5.5" ry="5" fill="#72DACD"/>
<path d="M24.1921 24.5502L24.1924 24.5499C25.2081 23.5818 25.725 22.3891 25.725 21C25.725 19.6109 25.2081 18.4182 24.1924 17.4501L24.1921 17.4498C23.1765 16.4833 21.9359 16 20.5 16C19.0641 16 17.8235 16.4833 16.8079 17.4498L16.8076 17.4501C15.7919 18.4182 15.275 19.6109 15.275 21C15.275 22.3891 15.7919 23.5818 16.8076 24.5499L16.8079 24.5502C17.8235 25.5167 19.0641 26 20.5 26C21.9359 26 23.1765 25.5167 24.1921 24.5502ZM10.9619 13.9504L10.9625 13.9498C11.2787 13.6482 11.6486 13.5 12.1 13.5H15.4075H15.6187L15.766 13.3485L17.0785 11.9985L17.0863 11.9905L17.0938 11.9821C17.2343 11.824 17.4013 11.7064 17.6005 11.6263C17.8121 11.5423 18.0336 11.5 18.2687 11.5H22.7312C22.9664 11.5 23.1879 11.5423 23.3994 11.6263C23.5986 11.7064 23.7657 11.824 23.9062 11.9821L23.9137 11.9905L23.9215 11.9985L25.234 13.3485L25.3813 13.5H25.5925H28.9C29.3514 13.5 29.7218 13.6482 30.0388 13.9501C30.3542 14.2504 30.5 14.5917 30.5 15V27C30.5 27.4084 30.3541 27.7501 30.0385 28.0512C29.7217 28.3522 29.3514 28.5 28.9 28.5H12.1C11.6484 28.5 11.2783 28.352 10.9622 28.0509C10.646 27.7497 10.5 27.4081 10.5 27V15C10.5 14.5919 10.6459 14.2508 10.9619 13.9504Z" stroke="black"/>
</svg>
