<svg width="300" height="300" viewBox="0 0 300 300" fill="none" xmlns="http://www.w3.org/2000/svg">
<path d="M242.356 95.4728C238.846 87.7051 234.204 80.7962 228.627 74.5899C226.794 72.5992 225.351 70.2572 224.571 67.681L214.197 34.3466C213.027 30.9507 208.775 29.8968 206.123 32.3169L188.768 49.2963C188.027 49.0231 187.324 48.7108 186.583 48.4767C173.206 44.144 158.19 41.9581 141.498 41.9581C129.446 41.9581 117.902 42.8168 106.903 44.5733C100.585 45.5882 94.6958 46.7592 89.2356 48.1644C85.6474 49.0621 81.8643 48.4767 78.6661 46.6811L58.6973 35.5176C54.9142 33.4098 50.936 36.5715 50.819 41.841L50 72.0137C50 72.0137 50 72.0918 50 72.1308V232.948C50 239.154 51.3651 244.502 54.1342 248.952C56.9033 253.402 60.5694 257.071 65.1326 259.881C69.6958 262.691 74.961 264.76 80.9672 266.048C86.9345 267.336 93.1357 268 99.571 268C104.212 268 108.853 267.688 113.534 267.063C118.214 266.439 122.699 265.502 126.989 264.253C131.279 263.004 135.296 261.52 139.08 259.764C140.289 259.218 141.42 258.632 142.512 258.007C146.451 255.822 148.791 251.606 148.791 247.078V239.35C148.791 232.909 143.916 227.561 137.52 226.859C135.296 226.625 133.268 226.351 131.474 226.039C126.911 225.298 123.284 224.478 120.554 223.58C117.863 222.682 115.952 221.667 114.899 220.535C113.846 219.404 113.3 218.233 113.3 216.983C113.3 215.969 113.456 215.188 113.729 214.602C114.002 214.056 114.314 213.588 114.665 213.236C115.913 213.822 117.863 214.446 120.593 215.188C123.284 215.93 126.404 216.671 129.914 217.374C133.424 218.115 137.129 218.74 141.069 219.247C145.008 219.755 148.869 220.028 152.574 220.028C167.239 220.028 180.577 218.193 192.59 214.524C204.602 210.855 214.86 205.352 223.362 198.013C231.864 190.675 238.456 181.541 243.058 170.573C247.699 159.644 250 146.919 250 132.476C250 118.932 247.465 106.558 242.395 95.3947L242.356 95.4728ZM120.242 119.01C120.242 114.833 123.596 111.476 127.769 111.476C131.942 111.476 135.296 114.833 135.296 119.01C135.296 123.186 131.942 126.543 127.769 126.543C123.596 126.543 120.242 123.186 120.242 119.01ZM168.526 165.459C160.842 165.459 154.017 161.556 150 155.623C145.944 161.556 139.158 165.459 131.474 165.459C129.329 165.459 127.574 163.703 127.574 161.556C127.574 159.409 129.329 157.653 131.474 157.653C138.417 157.653 144.228 152.774 145.71 146.294L138.846 139.658C138.261 139.112 138.105 138.253 138.378 137.512C138.69 136.77 139.392 136.302 140.172 136.302H159.789C160.569 136.302 161.31 136.77 161.583 137.512C161.895 138.253 161.7 139.112 161.154 139.658L154.29 146.333C155.811 152.813 161.583 157.653 168.526 157.653C170.671 157.653 172.426 159.409 172.426 161.556C172.426 163.703 170.671 165.459 168.526 165.459ZM172.192 126.543C168.019 126.543 164.665 123.186 164.665 119.01C164.665 114.833 168.019 111.476 172.192 111.476C176.365 111.476 179.719 114.833 179.719 119.01C179.719 123.186 176.365 126.543 172.192 126.543Z" fill="#72DACD"/>
</svg>
